<svg xmlns="http://www.w3.org/2000/svg" version="1.1" xmlns:xlink="http://www.w3.org/1999/xlink" xmlns:svgjs="http://svgjs.dev/svgjs" width="1440" height="560" preserveAspectRatio="none" viewBox="0 0 1440 560"><g mask="url(&quot;#SvgjsMask1818&quot;)" fill="none"><path d="M242.44 320.9L307.39 358.4L307.39 433.4L242.44 470.9L177.49 433.4L177.49 358.4zM697.12 208.4L762.07 245.9L762.07 320.9L697.12 358.4L632.16 320.9L632.16 245.9zM762.07 320.9L827.03 358.4L827.03 433.4L762.07 470.9L697.12 433.4L697.12 358.4zM1021.89 95.9L1086.84 133.4L1086.84 208.4L1021.89 245.9L956.93 208.4L956.93 133.4zM1281.7 95.9L1346.65 133.4L1346.65 208.4L1281.7 245.9L1216.75 208.4L1216.75 133.4zM1216.75 433.4L1281.7 470.9L1281.7 545.9L1216.75 583.4L1151.79 545.9L1151.79 470.9z" stroke="url(&quot;#SvgjsLinearGradient1819&quot;)" stroke-width="2"></path><path d="M234.94 320.9 a7.5 7.5 0 1 0 15 0 a7.5 7.5 0 1 0 -15 0zM299.89 358.4 a7.5 7.5 0 1 0 15 0 a7.5 7.5 0 1 0 -15 0zM299.89 433.4 a7.5 7.5 0 1 0 15 0 a7.5 7.5 0 1 0 -15 0zM234.94 470.9 a7.5 7.5 0 1 0 15 0 a7.5 7.5 0 1 0 -15 0zM169.99 433.4 a7.5 7.5 0 1 0 15 0 a7.5 7.5 0 1 0 -15 0zM169.99 358.4 a7.5 7.5 0 1 0 15 0 a7.5 7.5 0 1 0 -15 0zM689.62 208.4 a7.5 7.5 0 1 0 15 0 a7.5 7.5 0 1 0 -15 0zM754.57 245.9 a7.5 7.5 0 1 0 15 0 a7.5 7.5 0 1 0 -15 0zM754.57 320.9 a7.5 7.5 0 1 0 15 0 a7.5 7.5 0 1 0 -15 0zM689.62 358.4 a7.5 7.5 0 1 0 15 0 a7.5 7.5 0 1 0 -15 0zM624.66 320.9 a7.5 7.5 0 1 0 15 0 a7.5 7.5 0 1 0 -15 0zM624.66 245.9 a7.5 7.5 0 1 0 15 0 a7.5 7.5 0 1 0 -15 0zM819.53 358.4 a7.5 7.5 0 1 0 15 0 a7.5 7.5 0 1 0 -15 0zM819.53 433.4 a7.5 7.5 0 1 0 15 0 a7.5 7.5 0 1 0 -15 0zM754.57 470.9 a7.5 7.5 0 1 0 15 0 a7.5 7.5 0 1 0 -15 0zM689.62 433.4 a7.5 7.5 0 1 0 15 0 a7.5 7.5 0 1 0 -15 0zM1014.39 95.9 a7.5 7.5 0 1 0 15 0 a7.5 7.5 0 1 0 -15 0zM1079.34 133.4 a7.5 7.5 0 1 0 15 0 a7.5 7.5 0 1 0 -15 0zM1079.34 208.4 a7.5 7.5 0 1 0 15 0 a7.5 7.5 0 1 0 -15 0zM1014.39 245.9 a7.5 7.5 0 1 0 15 0 a7.5 7.5 0 1 0 -15 0zM949.43 208.4 a7.5 7.5 0 1 0 15 0 a7.5 7.5 0 1 0 -15 0zM949.43 133.4 a7.5 7.5 0 1 0 15 0 a7.5 7.5 0 1 0 -15 0zM1274.2 95.9 a7.5 7.5 0 1 0 15 0 a7.5 7.5 0 1 0 -15 0zM1339.15 133.4 a7.5 7.5 0 1 0 15 0 a7.5 7.5 0 1 0 -15 0zM1339.15 208.4 a7.5 7.5 0 1 0 15 0 a7.5 7.5 0 1 0 -15 0zM1274.2 245.9 a7.5 7.5 0 1 0 15 0 a7.5 7.5 0 1 0 -15 0zM1209.25 208.4 a7.5 7.5 0 1 0 15 0 a7.5 7.5 0 1 0 -15 0zM1209.25 133.4 a7.5 7.5 0 1 0 15 0 a7.5 7.5 0 1 0 -15 0zM1209.25 433.4 a7.5 7.5 0 1 0 15 0 a7.5 7.5 0 1 0 -15 0zM1274.2 470.9 a7.5 7.5 0 1 0 15 0 a7.5 7.5 0 1 0 -15 0zM1274.2 545.9 a7.5 7.5 0 1 0 15 0 a7.5 7.5 0 1 0 -15 0zM1209.25 583.4 a7.5 7.5 0 1 0 15 0 a7.5 7.5 0 1 0 -15 0zM1144.29 545.9 a7.5 7.5 0 1 0 15 0 a7.5 7.5 0 1 0 -15 0zM1144.29 470.9 a7.5 7.5 0 1 0 15 0 a7.5 7.5 0 1 0 -15 0z" fill="url(&quot;#SvgjsLinearGradient1819&quot;)"></path><path d="M107.19 229.7L141.84 249.7L141.84 289.7L107.19 309.7L72.55 289.7L72.55 249.7zM176.48 -10.3L211.12 9.7L211.12 49.7L176.48 69.7L141.84 49.7L141.84 9.7zM245.76 109.7L280.4 129.7L280.4 169.7L245.76 189.7L211.12 169.7L211.12 129.7zM280.4 409.7L315.05 429.7L315.05 469.7L280.4 489.7L245.76 469.7L245.76 429.7zM315.05 349.7L349.69 369.7L349.69 409.7L315.05 429.7L280.4 409.7L280.4 369.7zM349.69 409.7L384.33 429.7L384.33 469.7L349.69 489.7L315.05 469.7L315.05 429.7zM418.97 169.7L453.61 189.7L453.61 229.7L418.97 249.7L384.33 229.7L384.33 189.7zM453.61 469.7L488.26 489.7L488.26 529.7L453.61 549.7L418.97 529.7L418.97 489.7zM557.54 49.7L592.18 69.7L592.18 109.7L557.54 129.7L522.9 109.7L522.9 69.7zM557.54 409.7L592.18 429.7L592.18 469.7L557.54 489.7L522.9 469.7L522.9 429.7zM592.18 349.7L626.82 369.7L626.82 409.7L592.18 429.7L557.54 409.7L557.54 369.7zM696.11 409.7L730.75 429.7L730.75 469.7L696.11 489.7L661.47 469.7L661.47 429.7zM765.39 169.7L800.03 189.7L800.03 229.7L765.39 249.7L730.75 229.7L730.75 189.7zM730.75 229.7L765.39 249.7L765.39 289.7L730.75 309.7L696.11 289.7L696.11 249.7zM765.39 409.7L800.03 429.7L800.03 469.7L765.39 489.7L730.75 469.7L730.75 429.7zM973.24 169.7L1007.89 189.7L1007.89 229.7L973.24 249.7L938.6 229.7L938.6 189.7zM973.24 289.7L1007.89 309.7L1007.89 349.7L973.24 369.7L938.6 349.7L938.6 309.7zM973.24 529.7L1007.89 549.7L1007.89 589.7L973.24 609.7L938.6 589.7L938.6 549.7zM1007.89 229.7L1042.53 249.7L1042.53 289.7L1007.89 309.7L973.24 289.7L973.24 249.7zM1077.17 109.7L1111.81 129.7L1111.81 169.7L1077.17 189.7L1042.53 169.7L1042.53 129.7zM1111.81 289.7L1146.45 309.7L1146.45 349.7L1111.81 369.7L1077.17 349.7L1077.17 309.7zM1077.17 349.7L1111.81 369.7L1111.81 409.7L1077.17 429.7L1042.53 409.7L1042.53 369.7zM1181.1 49.7L1215.74 69.7L1215.74 109.7L1181.1 129.7L1146.45 109.7L1146.45 69.7zM1285.02 349.7L1319.66 369.7L1319.66 409.7L1285.02 429.7L1250.38 409.7L1250.38 369.7zM1388.95 289.7L1423.59 309.7L1423.59 349.7L1388.95 369.7L1354.31 349.7L1354.31 309.7zM1423.59 -10.3L1458.23 9.7L1458.23 49.7L1423.59 69.7L1388.95 49.7L1388.95 9.7zM1458.23 289.7L1492.87 309.7L1492.87 349.7L1458.23 369.7L1423.59 349.7L1423.59 309.7z" stroke="url(&quot;#SvgjsLinearGradient1820&quot;)" stroke-width="2"></path></g><defs><mask id="SvgjsMask1818"><rect width="1440" height="560" fill="#ffffff"></rect></mask><linearGradient x1="220.03199999999998" y1="-220.02399999999997" x2="1219.9679999999998" y2="780.024" gradientUnits="userSpaceOnUse" id="SvgjsLinearGradient1819"><stop stop-color="rgba(158, 0, 129, 1)" offset="0"></stop><stop stop-color="#03305d" offset="1"></stop></linearGradient><linearGradient x1="720" y1="560" x2="720" y2="0" gradientUnits="userSpaceOnUse" id="SvgjsLinearGradient1820"><stop stop-color="#0e2a47" offset="0"></stop><stop stop-color="rgba(100, 152, 218, 1)" offset="1"></stop></linearGradient></defs></svg>