<?xml version="1.0" standalone="no"?>
<!DOCTYPE svg PUBLIC "-//W3C//DTD SVG 20010904//EN"
 "http://www.w3.org/TR/2001/REC-SVG-20010904/DTD/svg10.dtd">
<svg version="1.0" xmlns="http://www.w3.org/2000/svg"
 width="1920.000000pt" height="1080.000000pt" viewBox="0 0 1920.000000 1080.000000"
 preserveAspectRatio="xMidYMid meet">

<g transform="translate(0.000000,1080.000000) scale(0.100000,-0.100000)"
fill="#000000" stroke="none">
<path d="M0 5400 l0 -5400 2532 0 c1392 0 2529 2 2527 5 -3 2 -126 5 -275 6
-148 0 -278 5 -289 9 -13 6 -15 9 -5 9 13 1 13 2 0 11 -13 8 -12 10 3 10 9 0
17 4 17 9 0 13 58 30 100 30 49 -1 344 22 349 27 11 10 -13 16 -85 20 -196 12
-234 16 -228 25 10 16 -28 22 -62 10 -33 -12 -35 -11 -73 28 -22 23 -46 41
-54 41 -16 0 -42 50 -30 59 11 8 15 31 5 31 -19 0 -80 63 -86 88 -19 78 -65
163 -66 120 -1 -8 -6 -6 -14 5 -7 9 -20 17 -29 17 -17 0 -77 55 -77 71 0 5 -6
9 -14 9 -7 0 -19 15 -27 33 -7 17 -25 48 -41 68 -15 20 -28 42 -28 48 0 6 -4
11 -9 11 -5 0 -7 8 -4 18 2 10 -3 25 -12 32 -14 12 -18 12 -26 -1 -7 -11 -9
-10 -9 4 0 11 -9 21 -19 24 -11 3 -22 12 -25 21 -13 37 -44 78 -74 97 -17 11
-31 26 -32 33 0 6 -6 12 -14 12 -8 0 -21 18 -30 40 -12 31 -21 40 -39 40 -19
0 -27 8 -37 40 -7 22 -17 40 -22 40 -4 0 -10 0 -13 0 -3 0 -23 18 -45 40 -22
22 -43 40 -48 40 -4 0 -18 18 -32 40 -14 22 -28 40 -31 40 -4 0 -16 19 -28 43
l-21 42 0 -45 0 -45 -21 43 c-12 23 -27 42 -33 42 -7 0 -19 18 -26 40 -7 22
-17 40 -21 40 -4 0 -10 8 -12 18 -4 15 -5 15 -6 0 -1 -13 -9 -9 -36 16 -24 23
-33 38 -29 53 3 11 1 24 -5 27 -6 4 -11 14 -11 22 0 8 -5 20 -10 27 -45 53
-50 62 -43 76 4 9 9 59 11 111 9 208 2 3630 -8 3890 -6 151 -12 424 -15 605
-10 743 -33 1263 -57 1308 -13 22 -17 25 -22 12 -3 -9 -6 -26 -6 -36 0 -11 -4
-17 -10 -14 -5 3 -15 -3 -22 -15 -7 -11 -18 -20 -25 -20 -7 0 -15 -11 -19 -25
-3 -14 -10 -23 -14 -20 -11 7 -40 -34 -40 -56 0 -9 -10 -19 -21 -22 -17 -5
-20 -11 -15 -30 4 -17 1 -27 -9 -31 -8 -3 -15 -12 -15 -19 0 -8 -9 -24 -20
-37 -22 -26 -22 -23 -21 -135 0 -44 0 -120 0 -168 0 -49 -5 -99 -11 -113 -10
-22 -16 -24 -90 -24 -60 0 -78 3 -78 14 0 17 -38 28 -59 17 -9 -5 -25 -5 -36
-1 -24 9 -65 -8 -65 -27 0 -12 -30 -44 -97 -104 -10 -9 -27 -27 -38 -40 l-19
-24 -7 25 c-4 14 -7 20 -8 14 -1 -7 -17 -28 -36 -47 -19 -19 -35 -41 -35 -48
0 -7 -8 -21 -17 -32 -12 -13 -14 -21 -7 -24 14 -5 -3 -72 -22 -88 -6 -5 -15
-23 -19 -40 -3 -16 -15 -35 -26 -43 -10 -7 -19 -19 -19 -25 0 -33 -25 -92 -47
-115 -31 -31 -76 -147 -67 -174 3 -10 -1 -25 -9 -33 -9 -8 -20 -38 -27 -67 -6
-29 -22 -72 -35 -96 -15 -27 -25 -61 -25 -86 l-1 -41 -13 30 -13 30 -7 -30
c-4 -16 -15 -47 -25 -67 -19 -37 -19 -37 3 -40 l21 -3 -23 -20 c-12 -11 -22
-27 -22 -37 0 -10 -4 -18 -10 -18 -5 0 -10 -10 -10 -22 0 -12 -7 -29 -15 -38
-12 -14 -14 -38 -8 -138 5 -110 8 -122 25 -122 12 0 18 -7 18 -25 0 -13 7 -28
15 -33 12 -6 17 -31 20 -98 3 -49 7 -124 11 -166 l6 -78 -26 0 c-23 0 -26 -4
-28 -37 -1 -21 -5 -2 -8 42 l-6 80 -2 -82 -2 -83 30 0 30 0 0 -80 c0 -73 -2
-80 -20 -80 -17 0 -20 7 -20 53 0 37 -3 48 -10 37 -5 -8 -10 -31 -10 -50 0
-30 5 -38 38 -55 35 -19 37 -23 40 -75 3 -57 12 -70 50 -70 12 0 25 -7 29 -16
3 -9 17 -27 29 -40 30 -29 34 -90 7 -97 -12 -3 -10 -5 7 -6 20 -1 22 -3 10
-11 -13 -8 -12 -10 3 -10 9 0 17 -5 17 -11 0 -5 -5 -7 -12 -3 -7 4 -8 3 -4 -4
4 -6 13 -9 22 -5 13 5 54 -30 54 -47 0 -4 8 -25 17 -46 18 -42 19 -45 22 -84
2 -23 3 -23 10 -5 l8 20 6 -20 c3 -11 9 -37 13 -58 4 -26 14 -42 28 -48 16 -8
22 -20 23 -47 3 -57 38 -132 63 -132 13 0 20 -7 20 -20 0 -11 -6 -20 -12 -20
-10 0 -10 -2 0 -9 9 -5 13 -32 13 -84 0 -70 2 -77 20 -77 16 0 19 -7 19 -40 0
-29 4 -40 15 -40 11 0 15 -12 16 -42 2 -31 3 -35 6 -15 4 23 7 26 19 16 9 -7
14 -31 14 -65 0 -53 1 -54 29 -54 57 0 61 -6 61 -86 0 -67 2 -74 20 -74 14 0
20 -7 20 -24 0 -25 36 -56 67 -56 16 0 16 -1 -1 -13 -17 -12 -14 -47 5 -47 22
0 6 -28 -23 -43 -26 -12 -29 -16 -13 -16 29 -1 45 -20 45 -53 0 -21 -5 -28
-20 -28 -13 0 -20 -7 -20 -20 0 -16 7 -20 30 -20 30 0 30 0 30 -59 0 -32 3
-86 6 -120 6 -50 10 -61 25 -61 15 0 19 -8 19 -40 0 -36 3 -40 25 -40 23 0 25
-4 25 -40 0 -22 -4 -40 -10 -40 -21 0 -13 -14 40 -77 5 -7 10 -46 10 -88 0
-43 4 -75 10 -75 6 0 10 -16 10 -35 0 -20 7 -52 15 -72 18 -43 19 -53 3 -53
-13 0 -38 -44 -38 -67 0 -9 -16 -13 -50 -13 -48 0 -50 1 -44 24 8 33 -13 43
-27 12 -15 -32 -39 -23 -39 15 l0 28 -77 3 -78 3 -3 42 c-3 42 -4 43 -37 43
-34 0 -85 35 -85 59 0 6 -9 11 -20 11 -17 0 -20 7 -20 49 l0 49 -80 7 c-76 7
-80 8 -80 31 0 21 4 24 40 24 l40 0 0 40 0 40 -40 0 c-39 0 -40 -1 -40 -35 l0
-34 -41 18 c-48 22 -108 79 -109 104 0 22 -14 28 -76 31 -49 2 -49 3 -52 39
-2 20 -8 37 -13 37 -6 0 -9 19 -8 45 2 25 -2 50 -9 57 -7 7 -12 21 -12 31 0
22 -44 67 -66 67 -7 0 -14 9 -14 20 0 16 -7 20 -36 20 -34 0 -35 1 -33 34 2
21 -3 42 -13 53 -28 32 -48 81 -48 118 0 28 -4 35 -19 35 -11 0 -34 18 -51 40
-29 37 -30 40 -11 40 24 0 25 3 9 47 -14 37 -35 44 -40 12 -3 -18 -11 -14 -61
37 -35 36 -53 60 -46 64 6 4 9 18 7 31 l-4 24 -14 -27 c-26 -53 -35 -33 -34
73 1 55 -2 113 -7 127 -7 20 -8 11 -5 -34 4 -61 4 -61 -28 -72 -18 -7 -35 -12
-39 -12 -4 0 -7 29 -7 65 0 64 0 65 27 65 26 0 26 1 7 15 -25 19 -34 19 -34 0
0 -19 -46 -20 -65 -2 -7 8 -15 25 -17 38 -2 16 -11 25 -25 27 -13 2 -23 -2
-23 -8 0 -7 -6 -6 -15 4 -8 8 -15 31 -15 50 0 29 -4 36 -20 36 -17 0 -20 7
-20 40 0 33 -3 40 -20 40 -17 0 -20 7 -20 40 0 26 -5 40 -13 40 -15 0 -37 55
-37 94 0 15 -7 29 -16 33 -13 5 -15 15 -10 52 4 29 3 41 -2 33 -8 -12 -15 -11
-42 3 -25 13 -30 19 -19 26 11 7 5 16 -25 44 -22 19 -48 35 -58 35 -10 0 -18
5 -18 10 0 6 18 10 40 10 27 0 40 4 40 13 0 9 -10 12 -30 9 -40 -6 -76 4 -84
24 -5 14 2 15 54 12 43 -2 60 1 60 10 0 8 -18 12 -59 12 l-59 0 -4 40 -4 40
61 -1 c43 0 54 -3 40 -9 -19 -8 -19 -9 3 -9 12 -1 22 5 22 13 0 14 -49 26
-113 26 -30 0 -40 4 -44 20 -5 18 -15 24 -35 21 -5 0 -8 35 -8 79 0 73 2 80
20 80 18 0 20 7 20 55 0 43 -3 55 -15 55 -14 0 -15 10 -9 61 6 52 4 64 -15 89
-11 16 -21 36 -21 45 0 8 -4 15 -10 15 -5 0 -10 18 -10 41 l0 41 -43 -3 -42
-4 4 40 c2 22 8 43 13 46 7 4 6 14 -1 27 -6 11 -11 33 -11 47 0 20 -4 26 -15
21 -18 -6 -34 20 -28 45 3 11 0 19 -7 19 -9 0 -11 14 -8 51 l5 50 -103 -2
c-67 -1 -109 3 -118 10 -11 10 -17 7 -30 -11 -9 -12 -16 -35 -16 -50 0 -16 -4
-28 -10 -28 -5 0 -10 9 -10 20 0 15 -7 20 -29 20 -17 0 -31 6 -35 16 -3 9 -6
85 -6 169 0 110 -3 154 -12 157 -7 3 -6 7 5 11 15 6 17 -2 17 -70 0 -57 3 -74
11 -66 7 7 12 66 14 160 3 178 23 355 42 366 9 6 13 33 13 95 0 52 5 93 11 99
6 6 13 26 15 44 2 17 9 38 15 45 9 10 8 21 0 42 -10 25 -9 34 13 73 14 24 26
51 26 59 0 8 9 21 21 28 16 10 18 16 9 27 -8 9 -8 20 -2 32 6 10 13 53 17 96
6 58 11 77 22 77 11 0 13 5 8 18 -18 41 -16 57 6 67 26 12 47 63 48 118 1 25
6 37 15 37 15 0 36 76 36 130 0 23 5 30 20 30 17 0 20 7 20 46 0 49 18 133 31
149 5 5 9 23 9 40 0 30 42 105 60 105 5 0 9 8 9 18 0 48 44 202 58 202 7 0 15
17 19 38 4 20 11 40 15 43 5 3 12 33 15 67 5 41 13 67 25 78 11 10 19 27 19
39 0 14 7 25 19 28 14 3 21 19 29 68 11 70 48 178 66 194 24 23 46 79 46 121
0 36 3 44 19 44 22 0 35 29 52 114 6 33 15 67 19 75 4 9 14 36 21 61 7 25 20
52 29 60 19 19 35 52 56 118 9 28 20 52 25 52 5 0 14 12 20 27 20 53 60 127
75 137 8 6 16 22 19 35 2 12 8 28 13 35 5 6 17 36 27 66 10 30 26 73 35 95 10
22 26 65 35 95 34 114 77 221 98 244 51 54 66 79 83 128 9 29 25 59 35 66 9 6
25 34 34 61 9 27 23 52 31 55 8 3 13 10 10 15 -3 5 28 75 69 156 41 81 75 141
76 133 0 -7 6 -2 12 12 7 14 20 36 30 50 9 13 17 34 17 46 0 12 9 33 20 47 11
14 20 31 20 37 0 7 13 32 30 56 16 25 33 56 36 69 3 14 10 25 16 25 5 0 6 5 3
10 -3 6 0 10 7 10 9 0 9 3 -2 10 -11 7 -11 10 -2 10 7 0 10 4 7 10 -4 6 44 11
127 13 73 1 -401 4 -1054 5 l-1188 2 0 -5400z m437 1418 c-2 -13 -4 -3 -4 22
0 25 2 35 4 23 2 -13 2 -33 0 -45z m-240 -1180 c-2 -24 -4 -5 -4 42 0 47 2 66
4 43 2 -24 2 -62 0 -85z m1800 -570 c-2 -13 -4 -5 -4 17 -1 22 1 32 4 23 2
-10 2 -28 0 -40z m38 -418 c3 -5 -1 -10 -10 -10 -9 0 -13 5 -10 10 3 6 8 10
10 10 2 0 7 -4 10 -10z"/>
<path d="M4787 10790 c100 -3 185 -8 189 -12 4 -5 -10 -8 -32 -9 -30 0 -34 -2
-19 -9 18 -7 17 -8 -10 -16 -16 -4 -38 -18 -48 -31 -10 -13 -25 -23 -33 -23
-7 0 -19 -9 -26 -20 -7 -11 -18 -20 -24 -20 -7 0 -14 -7 -18 -15 -3 -8 -11
-15 -17 -15 -12 0 -109 -98 -109 -110 0 -7 -23 -36 -59 -75 -10 -11 -25 -34
-34 -51 -9 -17 -23 -34 -32 -37 -8 -4 -15 -15 -15 -25 0 -21 -50 -125 -62
-130 -4 -2 -8 -10 -8 -18 0 -8 -8 -14 -17 -15 -15 0 -15 -2 3 -10 20 -10 20
-11 -5 -38 -14 -15 -33 -30 -41 -34 -8 -3 0 -6 18 -6 18 -1 42 -6 53 -12 13
-6 144 -11 363 -13 337 -2 343 -3 379 -25 26 -16 37 -29 36 -44 -1 -12 -1 -53
0 -92 1 -69 1 -69 16 -41 8 15 16 36 16 45 1 9 5 -6 10 -33 21 -129 41 -1023
59 -2621 9 -829 19 -1114 39 -1167 5 -13 18 -32 30 -42 20 -18 42 -19 433 -19
340 -1 418 2 443 14 41 19 180 252 415 694 29 55 65 123 80 150 32 59 228 424
290 540 23 44 59 112 80 150 21 39 56 105 79 148 22 42 58 110 79 150 22 39
81 151 133 247 159 296 193 380 154 380 -24 0 -106 45 -138 74 -16 15 -41 54
-56 89 -24 52 -30 86 -41 212 -16 196 -11 337 14 389 28 56 103 125 166 154
47 21 77 26 215 33 88 4 206 8 263 8 102 1 103 1 132 32 15 17 49 72 75 123
162 310 237 436 270 454 37 19 365 29 1120 34 468 3 644 -3 674 -22 14 -8 28
-239 33 -540 3 -216 11 -328 21 -312 16 24 26 12 33 -38 7 -53 12 -57 47 -38
23 12 114 16 522 22 264 4 565 19 710 36 91 11 142 7 270 -21 126 -27 146 -25
191 16 22 19 42 35 46 35 4 0 33 33 65 73 31 39 64 77 73 83 8 7 26 21 39 33
13 12 30 21 38 21 7 0 13 4 13 10 0 5 17 12 38 15 20 4 44 9 52 12 8 3 22 8
30 11 23 8 303 9 745 3 l400 -6 65 -31 c53 -25 83 -50 154 -127 49 -54 94 -97
100 -97 6 0 16 -8 23 -19 7 -11 21 -17 40 -16 15 1 41 3 56 3 16 1 26 6 23 11
-6 9 69 21 159 27 22 1 144 2 270 2 323 0 349 -3 432 -52 34 -20 65 -36 70
-36 5 0 16 -9 26 -20 9 -11 22 -20 29 -20 7 0 26 -13 41 -30 16 -16 33 -30 38
-30 5 0 9 -6 9 -12 0 -7 18 -33 40 -58 22 -25 40 -51 40 -58 0 -7 7 -15 15
-18 8 -4 13 -10 10 -14 -4 -7 22 -67 35 -80 3 -3 14 -23 25 -45 17 -32 27 -41
60 -48 55 -11 125 8 125 35 0 21 42 63 109 110 24 17 52 39 63 50 10 10 24 18
32 18 8 0 16 4 18 8 5 12 116 62 137 62 10 0 32 7 50 16 25 13 70 16 219 17
103 1 194 -1 202 -4 8 -3 28 -11 43 -17 16 -7 34 -12 41 -12 6 0 17 -5 24 -12
6 -6 18 -13 27 -14 8 -1 27 -11 43 -23 16 -11 31 -18 34 -16 8 8 89 -35 95
-51 3 -8 18 -21 34 -30 16 -8 29 -21 29 -29 0 -8 7 -15 15 -15 8 0 15 -3 15
-7 0 -5 23 -32 50 -62 28 -29 50 -60 50 -67 0 -21 22 -64 31 -59 13 8 22 -103
15 -179 -17 -175 -21 -195 -47 -223 -15 -15 -29 -36 -32 -45 -4 -10 -11 -18
-16 -18 -6 0 -17 -13 -26 -30 -9 -16 -20 -30 -26 -30 -6 0 -25 -15 -43 -32
-39 -39 -63 -58 -71 -58 -4 0 -40 -27 -81 -60 -41 -33 -77 -60 -80 -60 -4 0
-22 -13 -41 -30 -18 -16 -39 -30 -46 -30 -7 0 -31 -18 -52 -40 -21 -22 -43
-40 -48 -40 -12 0 -107 -98 -107 -110 0 -11 -26 -43 -93 -112 -26 -27 -47 -55
-47 -62 0 -7 -13 -26 -30 -42 -16 -16 -30 -35 -30 -41 0 -7 -18 -31 -40 -53
-21 -21 -49 -58 -61 -82 -12 -24 -35 -56 -51 -73 -44 -44 -110 -183 -159 -330
-23 -72 -46 -136 -52 -143 -5 -7 -7 -15 -4 -19 4 -3 2 -11 -3 -18 -5 -6 -11
-31 -14 -56 -2 -24 -7 -51 -11 -60 -3 -10 -2 -20 4 -24 7 -3 11 -41 11 -90 0
-46 7 -112 17 -147 9 -35 16 -73 15 -84 -1 -12 5 -27 13 -34 9 -8 13 -21 10
-31 -4 -13 -1 -19 9 -19 9 0 16 -6 16 -14 0 -7 13 -47 28 -87 41 -105 52 -142
52 -170 0 -14 9 -50 20 -82 11 -31 20 -65 20 -76 0 -11 9 -23 21 -26 16 -5 18
-10 9 -20 -14 -16 -9 -61 6 -58 6 1 19 -33 29 -75 10 -42 25 -89 32 -104 7
-15 13 -31 13 -35 0 -5 7 -16 15 -26 21 -24 35 -62 35 -93 0 -14 7 -32 15 -40
8 -9 15 -24 15 -34 0 -11 9 -34 20 -52 23 -39 26 -68 5 -68 -12 0 -11 -5 3
-30 11 -19 25 -30 38 -30 17 0 26 -11 40 -50 12 -35 25 -52 44 -60 24 -10 29
-22 46 -97 12 -56 25 -89 36 -97 10 -6 18 -16 18 -23 0 -7 4 -13 9 -13 5 0 11
-18 15 -40 3 -22 12 -40 19 -40 14 0 37 -45 37 -73 0 -20 22 -47 40 -47 6 0
13 -7 17 -16 9 -23 48 -64 61 -64 7 0 14 -11 18 -25 3 -14 10 -25 14 -25 4 0
10 -15 12 -34 3 -24 0 -32 -9 -29 -9 4 -10 -3 -3 -26 5 -17 10 -58 11 -92 2
-54 0 -63 -23 -82 -14 -12 -33 -35 -43 -52 -19 -35 -95 -74 -95 -49 0 10 -12
14 -40 14 -22 0 -40 5 -40 10 0 6 -15 10 -34 10 -36 0 -46 15 -46 73 0 27 0
27 -70 27 l-70 0 0 80 c0 57 -4 80 -12 80 -10 0 -12 30 -10 122 3 128 -12 198
-42 198 -9 0 -15 20 -20 61 -9 88 -8 99 9 99 8 0 15 5 15 11 0 6 -8 9 -17 7
-29 -5 -103 83 -103 122 0 11 -3 20 -8 20 -9 0 -48 71 -45 82 2 4 -4 5 -12 2
-9 -4 -15 0 -15 8 0 8 -12 21 -26 28 -14 8 -32 27 -40 43 -8 15 -24 37 -35 48
-11 11 -24 31 -29 45 -6 14 -22 32 -38 41 -16 9 -36 35 -46 60 -13 31 -21 41
-27 32 -10 -17 -10 -16 -45 50 -15 30 -36 56 -45 58 -10 3 -21 14 -25 25 -3
11 -28 42 -55 68 -31 31 -49 57 -49 72 0 23 -30 58 -49 58 -15 0 -81 66 -81
81 -1 18 -101 129 -116 129 -6 0 -17 7 -24 15 -9 11 -9 15 -1 15 24 0 -57 66
-117 95 -34 17 -64 37 -67 46 -8 24 -54 42 -71 28 -14 -11 -37 -1 -56 25 -4 6
-20 6 -41 -1 -20 -6 -47 -8 -61 -6 -15 3 -26 1 -26 -5 0 -6 -17 -14 -37 -17
-21 -3 -46 -10 -55 -16 -10 -5 -24 -9 -33 -9 -8 0 -19 -9 -25 -20 -6 -11 -17
-20 -25 -20 -8 0 -15 -8 -15 -18 0 -24 -26 -76 -45 -92 -8 -7 -15 -18 -15 -24
0 -7 -8 -21 -17 -32 -19 -20 -24 -60 -10 -81 4 -6 2 -13 -5 -15 -10 -4 -10
-13 0 -44 7 -21 14 -59 16 -84 5 -82 28 -167 50 -191 20 -22 60 -126 61 -156
0 -6 4 -15 8 -19 4 -4 7 -15 7 -25 0 -9 4 -19 9 -21 6 -1 55 -93 111 -203 56
-110 109 -209 119 -220 11 -11 29 -38 41 -60 12 -22 31 -56 43 -77 12 -20 37
-62 56 -95 18 -32 40 -65 48 -73 14 -15 56 -80 58 -90 2 -12 59 -90 66 -90 4
0 29 -34 56 -75 26 -41 53 -75 58 -75 13 0 54 -49 80 -97 11 -20 34 -43 50
-52 26 -14 55 -37 90 -72 6 -5 21 -20 34 -32 14 -12 53 -48 87 -80 34 -32 75
-71 91 -85 16 -15 37 -39 46 -54 10 -16 23 -28 31 -28 7 0 21 -9 31 -20 10
-11 24 -20 32 -20 7 0 13 -4 13 -10 0 -5 7 -10 15 -10 7 0 18 -6 22 -14 4 -7
26 -23 48 -34 48 -25 105 -76 105 -94 0 -19 39 -50 55 -44 7 2 22 -5 33 -17
18 -19 20 -37 22 -145 l1 -124 -44 -44 c-25 -24 -51 -44 -60 -44 -9 0 -20 -6
-24 -13 -10 -17 -70 -47 -95 -47 -10 0 -18 -7 -18 -16 0 -9 -17 -22 -40 -31
-22 -9 -42 -24 -45 -34 -5 -15 -16 -19 -56 -19 -28 0 -48 -4 -45 -9 3 -5 -1
-14 -9 -21 -16 -13 -135 -40 -177 -40 -16 0 -28 -6 -28 -12 0 -28 -99 -69
-173 -73 -27 -1 -52 -6 -55 -12 -4 -6 -17 -13 -29 -17 -13 -4 -23 -14 -23 -21
0 -8 -12 -18 -27 -21 -15 -4 -44 -25 -63 -46 -20 -21 -43 -38 -52 -38 -9 0
-24 -7 -33 -17 -14 -13 -18 -14 -25 -2 -5 7 -11 11 -13 9 -2 -3 -14 -21 -27
-40 -31 -45 -38 -51 -83 -79 -20 -12 -35 -27 -31 -32 3 -5 1 -9 -4 -9 -5 0 -7
-11 -4 -25 2 -14 -1 -31 -7 -39 -9 -10 -8 -15 3 -19 21 -8 52 -70 37 -75 -13
-4 -15 -82 -2 -82 13 0 19 -79 6 -84 -5 -2 -1 -5 10 -5 11 -1 44 -10 73 -21
29 -11 63 -20 76 -20 14 0 31 -6 38 -13 7 -8 40 -17 73 -21 33 -4 74 -11 90
-16 17 -4 57 -13 90 -19 33 -6 65 -18 71 -26 9 -12 33 -16 103 -16 84 0 94 -2
116 -25 14 -14 25 -31 25 -39 0 -10 12 -15 38 -16 l37 -1 -37 -10 c-21 -6 -38
-14 -38 -19 0 -5 -9 -9 -20 -9 -11 0 -20 5 -20 10 0 12 -50 13 -69 1 -8 -5
-11 -17 -6 -32 5 -19 4 -21 -4 -9 -6 8 -11 10 -11 4 0 -13 -113 -44 -160 -44
-16 0 -30 -4 -30 -10 0 -5 -21 -10 -47 -10 -27 0 -61 -7 -77 -15 -16 -8 -66
-18 -112 -22 -46 -3 -84 -10 -84 -14 0 -5 -6 -6 -14 -3 -8 3 -48 -6 -88 -20
-41 -14 -94 -28 -118 -31 -25 -4 -56 -12 -69 -18 -18 -9 -25 -9 -28 -1 -4 13
-83 -3 -83 -17 0 -9 -67 -24 -92 -20 -11 1 -18 -4 -18 -13 0 -12 -10 -16 -36
-16 -21 0 -47 -8 -62 -21 l-27 -21 -3 21 c-5 31 -46 28 -60 -4 -14 -30 -50
-46 -117 -51 -27 -3 -59 -9 -70 -14 -11 -5 -46 -17 -78 -26 -42 -11 -57 -20
-53 -30 3 -8 -1 -14 -9 -14 -8 0 -15 -8 -15 -19 0 -15 -10 -19 -58 -24 -32 -4
-67 -10 -78 -14 -15 -6 -11 -9 21 -15 32 -5 29 -6 -16 -3 -35 2 -85 -4 -130
-16 -40 -10 -88 -19 -106 -19 -29 0 -33 -3 -33 -25 0 -22 4 -25 40 -25 22 0
40 -4 40 -10 0 -5 -18 -10 -40 -10 -22 0 -40 5 -40 10 0 15 -36 12 -50 -5 -7
-8 -19 -15 -28 -15 -23 0 -82 -23 -82 -32 0 -4 -8 -8 -17 -8 -13 0 -15 -2 -5
-8 15 -10 -26 -32 -58 -32 -11 0 -20 -7 -20 -15 0 -10 -10 -15 -30 -15 -16 0
-30 5 -30 11 0 5 -4 8 -10 4 -5 -3 -7 -12 -3 -20 3 -10 -1 -15 -13 -15 -14 0
-15 -3 -6 -12 20 -20 14 -27 -35 -50 -58 -26 -93 -57 -93 -80 0 -10 -4 -18
-10 -18 -5 0 -10 -18 -10 -40 0 -38 -2 -40 -30 -40 -33 0 -34 -3 -35 -142 l0
-58 45 -2 c39 -1 40 -2 10 -5 -119 -12 -269 -63 -277 -94 -5 -19 -72 -59 -99
-59 -9 0 -14 -3 -10 -7 3 -4 53 -8 109 -10 56 -2 116 -7 132 -12 40 -12 277
-24 565 -27 129 -2 244 -3 255 -3 11 -1 118 -1 239 -1 141 0 223 -3 231 -10 7
-6 30 -11 52 -10 21 0 72 -6 113 -13 41 -8 94 -17 117 -21 76 -10 127 -50 93
-71 -6 -4 -8 -11 -5 -16 4 -5 -5 -19 -18 -31 -13 -13 -26 -30 -29 -39 -4 -9
-19 -19 -35 -22 -15 -3 -44 -10 -63 -16 l-35 -11 45 4 45 4 -40 -13 c-22 -7
-33 -15 -25 -17 8 -1 -390 -5 -885 -8 -495 -3 606 -6 2448 -8 l3347 -2 0 5400
0 5400 -7297 -2 c-4014 -1 -7216 -5 -7116 -8z m10600 -2066 c-3 -3 -12 -4 -19
-1 -8 3 -5 6 6 6 11 1 17 -2 13 -5z m533 -4014 c0 -5 -2 -10 -4 -10 -3 0 -8 5
-11 10 -3 6 -1 10 4 10 6 0 11 -4 11 -10z m-1870 -3390 c0 -15 -7 -20 -25 -20
-18 0 -25 5 -25 20 0 15 7 20 25 20 18 0 25 -5 25 -20z m10 -90 l0 -30 -70 0
-70 0 0 30 0 30 70 0 70 0 0 -30z m-520 -80 c0 -5 -12 -10 -27 -9 -25 0 -26 1
-8 9 27 12 35 12 35 0z m-555 -590 c3 -6 -1 -7 -9 -4 -18 7 -21 14 -7 14 6 0
13 -4 16 -10z"/>
<path d="M10283 9040 c-12 -5 -57 -12 -100 -16 -93 -8 -116 -17 -86 -32 15 -8
43 -6 113 9 51 10 104 19 117 19 14 0 23 6 23 15 0 17 -32 19 -67 5z"/>
<path d="M15087 8259 c-9 -5 -22 -7 -27 -4 -6 4 -29 -3 -51 -14 -22 -12 -45
-18 -51 -15 -6 4 -8 2 -5 -3 9 -14 -15 -23 -59 -23 -19 0 -42 -4 -52 -9 -27
-14 -65 -29 -87 -35 -11 -3 -36 -21 -55 -39 -19 -18 -47 -41 -62 -51 -16 -10
-28 -24 -28 -31 0 -7 -6 -15 -13 -18 -8 -3 -20 -26 -27 -51 -7 -25 -17 -46
-21 -46 -5 0 -9 -19 -9 -42 0 -24 -6 -61 -14 -83 -9 -26 -12 -66 -9 -115 3
-41 5 -84 5 -95 2 -40 -12 -126 -26 -168 -8 -23 -17 -81 -20 -127 -3 -54 -2
-76 3 -60 5 15 10 19 11 10 2 -8 4 -24 6 -35 2 -11 5 -34 6 -52 2 -18 15 -45
29 -60 15 -15 24 -34 22 -40 -3 -7 1 -13 9 -13 7 0 19 -9 25 -20 7 -10 37 -31
68 -45 30 -15 57 -31 61 -36 3 -6 18 2 32 17 15 14 43 34 62 44 46 24 90 62
90 79 0 7 13 41 29 75 36 77 60 147 63 187 1 17 8 34 15 36 7 3 13 15 13 27 0
12 4 26 8 31 7 8 52 140 57 165 7 40 30 117 36 126 5 6 13 34 20 62 6 29 14
52 19 52 12 0 32 64 26 81 -3 8 -1 30 3 49 5 19 10 28 11 20 1 -8 7 4 14 26
13 41 10 144 -4 144 -14 0 -32 53 -20 60 20 12 -1 39 -28 38 -15 -1 -34 2 -42
5 -8 4 -23 2 -33 -4z"/>
<path d="M10123 8253 c-13 -2 -23 -7 -23 -11 0 -4 -11 -20 -25 -36 -14 -17
-28 -41 -31 -55 -3 -14 -10 -39 -14 -56 -18 -66 -25 -182 -35 -575 -3 -124 -8
-295 -11 -380 -8 -237 -7 -537 1 -614 6 -55 13 -75 37 -102 17 -19 34 -34 38
-34 4 0 32 -15 62 -32 l54 -33 134 2 c206 2 230 8 345 83 17 11 39 25 50 31
45 23 96 162 120 327 18 123 19 168 6 337 -6 72 -15 202 -21 290 -6 88 -13
166 -15 173 -3 8 -7 46 -10 85 -17 239 -20 250 -124 354 -70 70 -94 82 -346
170 -66 23 -120 50 -134 67 -14 16 -18 17 -58 9z"/>
<path d="M12789 7851 c-21 -4 -44 -15 -54 -24 -9 -9 -20 -17 -24 -17 -4 0 -31
-22 -58 -48 -52 -49 -85 -95 -137 -186 -16 -28 -32 -53 -36 -56 -3 -3 -23 -39
-45 -80 -21 -41 -55 -102 -76 -136 -22 -34 -39 -71 -39 -83 0 -11 -4 -21 -9
-21 -5 0 -15 -21 -21 -47 -6 -27 -16 -66 -22 -88 -5 -22 -10 -52 -10 -67 -1
-16 -5 -28 -10 -28 -5 0 -2 -7 6 -16 9 -8 16 -22 16 -29 0 -8 10 -17 23 -21
12 -4 25 -12 29 -18 5 -7 8 -6 8 3 0 8 15 -3 34 -25 36 -42 111 -87 164 -99
37 -8 77 11 146 69 86 72 136 129 162 186 14 30 38 80 54 110 15 30 42 98 59
150 18 52 36 104 41 115 14 33 29 87 35 135 4 24 8 47 10 50 6 10 -62 146 -97
193 -31 41 -89 88 -105 86 -5 -1 -24 -4 -44 -8z"/>
<path d="M8288 7153 c-14 -21 -38 -63 -55 -93 -17 -30 -102 -185 -190 -345
-283 -512 -274 -488 -232 -600 26 -70 119 -252 157 -308 44 -64 283 -464 333
-557 13 -25 30 -51 37 -58 6 -7 12 -18 12 -24 0 -15 40 -68 52 -68 17 0 -11
942 -42 1390 -10 145 -19 385 -22 568 -2 132 -12 152 -50 95z"/>
<path d="M12495 5683 c-53 -4 -119 -29 -111 -42 3 -4 -3 -17 -12 -27 -14 -15
-17 -35 -16 -99 2 -77 4 -85 59 -190 32 -60 61 -112 64 -115 9 -7 81 -155 81
-165 0 -5 6 -16 14 -24 15 -17 51 -81 124 -221 39 -75 88 -156 102 -170 3 -3
16 -27 29 -54 13 -27 43 -78 67 -113 24 -35 44 -65 44 -68 0 -7 134 -135 141
-135 4 0 15 -12 25 -27 23 -37 55 -62 77 -63 12 0 17 -8 17 -26 0 -22 3 -25
22 -21 12 4 27 2 33 -3 5 -5 28 -10 50 -12 l40 -3 0 75 c0 82 -20 210 -33 219
-5 3 -12 23 -15 44 -3 21 -13 51 -21 67 -8 17 -10 30 -5 30 6 0 6 8 -1 19 -5
11 -10 27 -10 35 0 18 -33 94 -96 221 -24 50 -44 94 -44 98 0 4 -22 44 -50 88
-27 44 -50 83 -50 86 0 3 -16 28 -35 54 -19 27 -35 52 -35 57 0 4 -10 23 -22
42 -12 19 -23 42 -24 50 -2 8 -9 19 -16 25 -8 5 -29 33 -48 60 -19 28 -37 52
-40 55 -3 3 -18 25 -32 50 -33 56 -124 150 -172 175 -20 11 -36 23 -36 27 0 5
-3 7 -7 6 -5 -1 -30 -3 -58 -5z"/>
<path d="M275 5610 c-3 -5 -1 -10 4 -10 7 0 12 -32 12 -82 l2 -83 10 77 c8 65
7 80 -6 93 -10 9 -18 11 -22 5z"/>
<path d="M345 5510 c3 -5 8 -10 11 -10 2 0 4 5 4 10 0 6 -5 10 -11 10 -5 0 -7
-4 -4 -10z"/>
<path d="M498 5513 c12 -2 32 -2 45 0 12 2 2 4 -23 4 -25 0 -35 -2 -22 -4z"/>
<path d="M10165 5331 c-78 -28 -145 -73 -145 -98 0 -7 -4 -13 -9 -13 -5 0 -19
-26 -31 -57 -19 -50 -21 -77 -21 -203 1 -149 16 -488 27 -595 3 -33 7 -89 8
-125 2 -36 6 -81 10 -100 5 -30 20 -231 31 -425 10 -187 26 -342 40 -402 9
-37 18 -78 21 -91 5 -26 19 -391 17 -462 -14 -547 5 -709 100 -853 31 -46 34
-48 67 -42 19 4 54 7 78 6 23 -1 42 3 42 9 0 6 31 10 79 10 66 0 82 3 93 18 7
10 21 21 32 25 11 5 16 13 12 23 -3 9 -3 21 1 27 4 7 7 21 8 32 0 11 6 20 13
20 7 0 22 26 33 59 11 32 27 65 35 73 7 8 14 23 14 33 0 10 7 25 15 33 19 20
32 78 48 222 13 113 13 123 -6 180 -20 61 -41 250 -35 314 1 11 5 18 9 15 14
-8 16 21 3 37 -12 13 -12 24 2 70 9 30 17 95 19 144 1 57 8 101 17 120 9 17
19 50 23 75 3 25 13 65 20 90 15 47 33 227 41 410 3 58 10 115 16 127 6 12 8
28 5 35 -5 15 12 110 37 205 38 143 -7 314 -151 575 -17 31 -35 67 -39 80 -4
13 -15 29 -25 36 -11 7 -19 19 -19 27 0 18 -118 195 -131 195 -6 0 -7 5 -4 10
3 6 -1 10 -9 10 -8 0 -21 9 -28 19 -8 11 -26 25 -41 32 -14 6 -24 16 -21 20 3
5 -3 9 -13 9 -11 0 -24 5 -30 11 -25 25 -211 46 -258 30z"/>
<path d="M1882 5250 c-2 -39 1 -50 13 -50 21 0 31 29 17 51 -7 10 -12 26 -12
34 0 8 -4 15 -8 15 -4 0 -9 -22 -10 -50z"/>
<path d="M1840 5210 c0 -5 5 -10 10 -10 6 0 10 5 10 10 0 6 -4 10 -10 10 -5 0
-10 -4 -10 -10z"/>
<path d="M5380 4812 c-54 -55 -53 -31 -46 -1177 10 -1490 14 -1767 29 -1782 3
-3 3 -11 0 -19 -4 -10 3 -14 21 -14 14 0 26 5 26 10 0 6 26 10 57 10 37 0 62
5 74 16 14 12 22 13 38 4 12 -6 21 -7 21 -2 0 5 15 9 33 10 64 2 207 25 207
34 0 4 9 8 19 8 39 0 51 11 52 49 1 20 3 28 6 19 5 -19 29 -23 52 -9 7 5 10
14 7 20 -4 6 -1 11 8 11 9 0 30 9 48 20 41 25 48 25 48 0 0 -11 5 -20 10 -20
6 0 10 18 10 40 0 29 4 40 15 40 11 0 15 11 15 41 0 38 2 41 23 35 12 -3 33
-3 46 1 23 6 23 8 16 90 -8 92 2 223 16 223 5 0 9 -16 9 -35 0 -58 17 -39 24
26 3 34 6 70 6 80 0 33 -19 21 -26 -16 -7 -39 -7 -39 -36 -24 -16 9 -18 13 -7
19 10 7 6 12 -14 21 -15 7 -27 18 -27 25 0 7 -6 11 -14 8 -7 -3 -39 12 -70 33
-51 35 -56 41 -56 76 0 20 -4 37 -10 37 -5 0 -10 18 -10 40 0 33 -3 40 -20 40
-17 0 -20 7 -20 40 0 24 5 40 12 40 6 0 5 7 -5 18 -13 14 -14 21 -5 30 7 7 18
12 25 12 7 0 13 9 13 19 0 20 72 57 78 40 2 -5 9 -9 17 -9 7 0 18 -7 25 -15 8
-10 31 -15 66 -15 44 0 54 -3 54 -17 0 -36 14 0 17 44 3 51 10 64 24 43 7 -13
10 -13 18 -1 5 7 6 21 4 31 -3 10 0 21 6 24 6 4 11 0 11 -9 0 -13 5 -13 40 5
22 11 40 25 40 30 0 6 18 10 40 10 22 0 40 5 40 11 0 7 21 10 58 8 32 -2 67 2
79 9 12 7 27 12 34 12 7 0 31 8 53 19 23 10 56 25 74 32 17 8 32 20 32 27 0 7
11 17 25 22 14 5 25 11 25 14 0 9 -112 234 -160 321 -15 28 -42 77 -60 110
-62 113 -184 330 -212 378 -15 26 -28 50 -28 52 0 3 -19 35 -41 72 -23 38 -54
91 -69 118 -72 130 -226 394 -249 425 -67 91 -64 90 -372 90 l-261 0 -28 -28z
m857 -1824 c-3 -8 -6 -5 -6 6 -1 11 2 17 5 13 3 -3 4 -12 1 -19z"/>
<path d="M960 4580 c0 -13 7 -20 20 -20 11 0 20 4 20 10 0 5 -9 14 -20 20 -17
9 -20 8 -20 -10z"/>
<path d="M1105 4090 c-3 -5 -1 -10 4 -10 6 0 11 5 11 10 0 6 -2 10 -4 10 -3 0
-8 -4 -11 -10z"/>
<path d="M1135 4090 c3 -5 8 -10 11 -10 2 0 4 5 4 10 0 6 -5 10 -11 10 -5 0
-7 -4 -4 -10z"/>
<path d="M1201 4064 c0 -11 3 -14 6 -6 3 7 2 16 -1 19 -3 4 -6 -2 -5 -13z"/>
<path d="M1230 3935 c0 -8 9 -15 20 -15 11 0 20 2 20 5 0 2 -9 9 -20 15 -16 9
-20 8 -20 -5z"/>
<path d="M1272 3890 c0 -14 2 -19 5 -12 2 6 2 18 0 25 -3 6 -5 1 -5 -13z"/>
<path d="M1280 3822 c0 -17 27 -45 39 -40 4 2 -3 14 -15 28 -14 14 -24 19 -24
12z"/>
<path d="M1487 3556 c-11 -27 -8 -36 8 -36 16 0 17 5 6 34 -7 18 -8 18 -14 2z"/>
<path d="M1600 3456 c0 -9 5 -16 10 -16 6 0 10 4 10 9 0 6 -4 13 -10 16 -5 3
-10 -1 -10 -9z"/>
<path d="M6503 3103 c-20 -7 -15 -23 7 -23 11 0 20 4 20 9 0 13 -12 19 -27 14z"/>
<path d="M6080 2790 c0 -5 4 -10 9 -10 6 0 13 5 16 10 3 6 -1 10 -9 10 -9 0
-16 -4 -16 -10z"/>
<path d="M6080 2650 c0 -5 5 -10 10 -10 6 0 10 5 10 10 0 6 -4 10 -10 10 -5 0
-10 -4 -10 -10z"/>
<path d="M2160 2570 c0 -5 7 -10 16 -10 8 0 12 5 9 10 -3 6 -10 10 -16 10 -5
0 -9 -4 -9 -10z"/>
<path d="M6257 2305 c6 -17 25 -15 31 3 2 7 -5 12 -17 12 -14 0 -19 -5 -14
-15z"/>
<path d="M6218 2083 c7 -3 16 -2 19 1 4 3 -2 6 -13 5 -11 0 -14 -3 -6 -6z"/>
<path d="M15441 1817 c2 -1 12 -9 22 -16 14 -12 17 -11 17 3 0 10 -8 16 -22
16 -12 0 -19 -1 -17 -3z"/>
<path d="M5351 1431 c-21 -113 -42 -606 -31 -761 5 -84 -17 -441 -29 -453 -6
-6 -11 -18 -11 -27 0 -19 -26 -33 -91 -50 -37 -10 -41 -13 -25 -22 12 -7 63
-7 145 -2 69 4 131 6 136 5 6 -2 15 -3 20 -2 60 9 653 50 740 51 22 0 537 2
1145 5 608 2 1128 5 1155 6 28 1 80 -2 117 -6 81 -9 101 0 54 24 -22 12 -71
21 -133 25 -128 9 -142 13 -136 36 5 19 -21 52 -53 64 -30 12 -53 14 -299 26
-126 7 -232 14 -234 16 -2 2 20 5 50 6 48 2 107 5 147 7 7 1 11 5 8 10 -3 5 7
14 23 19 22 8 31 7 35 -1 3 -8 8 -8 15 3 8 11 7 18 -4 26 -23 18 -18 34 14 40
17 4 31 14 34 24 3 11 20 25 38 33 33 14 34 15 33 73 0 32 1 53 4 46 2 -6 12
-12 23 -12 17 0 25 17 19 45 -1 5 -2 45 -2 87 0 43 -3 78 -6 78 -7 0 -14 14
-41 80 -6 14 -15 32 -19 40 -5 8 -15 26 -22 39 -29 56 -65 120 -100 176 -21
33 -41 70 -45 83 -3 12 -11 22 -16 22 -5 0 -9 6 -10 13 0 6 -15 32 -33 57
l-33 45 -129 -1 c-182 -1 -444 -16 -444 -24 0 -6 -236 -21 -360 -23 -203 -3
-746 17 -810 29 -41 8 -106 17 -145 20 -38 3 -95 12 -125 20 -30 9 -109 19
-175 24 -66 4 -151 13 -190 19 -38 6 -98 12 -132 14 l-61 3 -11 -55z m1242
-78 c-7 -2 -19 -2 -25 0 -7 3 -2 5 12 5 14 0 19 -2 13 -5z m560 0 c-7 -2 -19
-2 -25 0 -7 3 -2 5 12 5 14 0 19 -2 13 -5z"/>
<path d="M10500 1462 c-33 -11 -33 -56 1 -65 13 -3 18 -13 17 -29 -1 -15 17
-52 47 -96 47 -67 52 -71 87 -72 26 0 40 5 46 18 13 25 15 145 2 137 -5 -3
-10 3 -10 14 0 21 -34 46 -49 37 -5 -3 -16 3 -26 14 -10 11 -31 20 -47 20 -15
0 -28 4 -28 9 0 12 -22 19 -40 13z"/>
<path d="M11059 372 c-1 -4 -2 -11 -4 -17 -1 -5 -3 -16 -3 -23 -1 -7 -7 -10
-12 -7 -7 5 -9 -9 -5 -40 5 -45 5 -46 -31 -61 -20 -8 -77 -21 -128 -28 l-91
-12 115 -8 c73 -5 125 -4 142 3 29 11 48 38 48 69 0 27 23 43 66 46 20 2 39 8
43 13 3 5 14 12 24 16 9 3 17 13 17 22 0 11 -10 14 -42 11 -24 -1 -47 0 -53 4
-15 10 -85 20 -86 12z"/>
<path d="M5040 120 c0 -5 18 -10 40 -10 22 0 40 5 40 10 0 6 -18 10 -40 10
-22 0 -40 -4 -40 -10z"/>
<path d="M5528 3 c128 -2 335 -2 460 0 125 1 20 2 -233 2 -253 0 -355 -1 -227
-2z"/>
<path d="M6643 3 c48 -2 125 -2 170 0 45 1 6 3 -88 3 -93 0 -130 -2 -82 -3z"/>
<path d="M6938 3 c7 -3 16 -2 19 1 4 3 -2 6 -13 5 -11 0 -14 -3 -6 -6z"/>
<path d="M12433 3 c9 -2 25 -2 35 0 9 3 1 5 -18 5 -19 0 -27 -2 -17 -5z"/>
</g>
</svg>
