<svg xmlns="http://www.w3.org/2000/svg" version="1.1" xmlns:xlink="http://www.w3.org/1999/xlink" xmlns:svgjs="http://svgjs.dev/svgjs" width="1440" height="560" preserveAspectRatio="none" viewBox="0 0 1440 560"><g mask="url(&quot;#SvgjsMask1002&quot;)" fill="none"><rect width="1440" height="560" x="0" y="0" fill="#0e2a47"></rect><path d="M 0,24 C 57.6,62.8 172.8,219.4 288,218 C 403.2,216.6 460.8,26.4 576,17 C 691.2,7.6 748.8,151.4 864,171 C 979.2,190.6 1036.8,105.2 1152,115 C 1267.2,124.8 1382.4,199 1440,220L1440 560L0 560z" fill="rgba(104, 115, 190, 1)"></path><path d="M 0,405 C 96,416.2 288,480.8 480,461 C 672,441.2 768,288.6 960,306 C 1152,323.4 1344,499.6 1440,548L1440 560L0 560z" fill="rgba(46, 65, 197, 1)"></path></g><defs><mask id="SvgjsMask1002"><rect width="1440" height="560" fill="#ffffff"></rect></mask></defs></svg>